<?xml version="1.0" encoding="UTF-8" standalone="no"?>
<!DOCTYPE svg PUBLIC "-//W3C//DTD SVG 1.1//EN" "http://www.w3.org/Graphics/SVG/1.1/DTD/svg11.dtd">
<svg width="100%" height="100%" viewBox="0 0 90 110" version="1.1" xmlns="http://www.w3.org/2000/svg" xmlns:xlink="http://www.w3.org/1999/xlink" xml:space="preserve" xmlns:serif="http://www.serif.com/" style="fill-rule:evenodd;clip-rule:evenodd;stroke-miterlimit:10;">
    <g id="C" transform="matrix(1,0,0,1,-79.6082,-222.622)">
        <path d="M163,226L122,238C122,238 84.8,258.578 85,284L85,302C86.8,318.622 99,336.778 131,326C144.2,322.022 151,320 151,320C151,320 158.4,318.578 158,303L158,291C158,291 156.6,289.178 128,298C124.6,300.822 116.4,299.778 116,299C111.8,295.622 108.8,278.178 125,267C136.8,260.022 154,257 154,257C162.333,256.685 162,248 162,248C161.833,242.018 164,228 164,228C164.833,226.185 163,226 163,226Z" style="fill:rgb(170,161,200);stroke:white;stroke-width:1.46px;"/>
    </g>
</svg>
