<?xml version="1.0" encoding="UTF-8" standalone="no"?>
<!DOCTYPE svg PUBLIC "-//W3C//DTD SVG 1.1//EN" "http://www.w3.org/Graphics/SVG/1.1/DTD/svg11.dtd">
<svg width="100%" height="100%" viewBox="0 0 80 115" version="1.1" xmlns="http://www.w3.org/2000/svg" xmlns:xlink="http://www.w3.org/1999/xlink" xml:space="preserve" xmlns:serif="http://www.serif.com/" style="fill-rule:evenodd;clip-rule:evenodd;stroke-miterlimit:10;">
    <g id="E" transform="matrix(1,0,0,1,-159.886,-416.982)">
        <path d="M180,436L229,420C229,420 234.5,417.482 234,424C233.667,431.685 232,439 232,439C232,439 231,443.815 227,445C214.667,448.018 205,452 205,452C198.167,455.518 201.667,462.482 208,460C216.5,456.852 220,456 220,456C220,456 226.333,452.815 225,459C222.5,467.852 222,477 222,477C222.333,477.685 219.667,479.982 217,481C209.333,482.685 202,486 202,486C194,489.852 198.667,495.982 204,494C212.667,490.852 224,487 224,487C224,487 229.333,485.148 227,491C225.5,497.852 226,508 226,508C226,508 225.167,511.315 221,513C212.667,515.018 170,529 170,529C170,529 164.5,531.648 166,524C167.833,513.685 169.667,486.482 170,484C171.167,462.185 175,444 175,444C175,444 175.333,437.315 180,436Z" style="fill:rgb(25,42,81);stroke:white;stroke-width:1.46px;"/>
    </g>
</svg>
