<?xml version="1.0" encoding="UTF-8" standalone="no"?>
<!DOCTYPE svg PUBLIC "-//W3C//DTD SVG 1.1//EN" "http://www.w3.org/Graphics/SVG/1.1/DTD/svg11.dtd">
<svg width="100%" height="100%" viewBox="0 0 80 115" version="1.1" xmlns="http://www.w3.org/2000/svg" xmlns:xlink="http://www.w3.org/1999/xlink" xml:space="preserve" xmlns:serif="http://www.serif.com/" style="fill-rule:evenodd;clip-rule:evenodd;stroke-miterlimit:10;">
    <g id="F" transform="matrix(1,0,0,1,-165.886,-310.982)">
        <path d="M186,330L235,314C235,314 240.5,311.482 240,318C239.667,325.685 238,333 238,333C238,333 237,337.815 233,339C220.667,342.018 211,346 211,346C204.167,349.518 207.667,356.482 214,354C222.5,350.852 226,350 226,350C226,350 232.333,346.815 231,353C228.5,361.852 228,371 228,371C228.333,371.685 225.667,373.982 223,375C215.333,376.685 208,380 208,380C204,381.422 202,384.222 202.6,389.622C202.2,402.022 202.567,416.137 198.4,417.822C190.067,419.84 176,423 176,423C176,423 170.5,425.648 172,418C173.833,407.685 175.667,380.482 176,378C177.167,356.185 181,338 181,338C181,338 181.333,331.315 186,330Z" style="fill:rgb(150,122,161);stroke:white;stroke-width:1.46px;"/>
    </g>
</svg>
