<?xml version="1.0" encoding="UTF-8" standalone="no"?>
<!DOCTYPE svg PUBLIC "-//W3C//DTD SVG 1.1//EN" "http://www.w3.org/Graphics/SVG/1.1/DTD/svg11.dtd">
<svg width="100%" height="100%" viewBox="0 0 50 110" version="1.1" xmlns="http://www.w3.org/2000/svg" xmlns:xlink="http://www.w3.org/1999/xlink" xml:space="preserve" xmlns:serif="http://www.serif.com/" style="fill-rule:evenodd;clip-rule:evenodd;stroke-miterlimit:10;">
    <g id="I" transform="matrix(1,0,0,1,-446.368,-169.947)">
        <path d="M487,174C487,174 491.833,171.482 491,177C488,197.018 482.333,254.315 482,260C481.5,264.185 480.333,266.648 478,268C466.333,272.518 455,276 455,276C455,276 450.333,278.482 452,272C454.5,262.685 455,251 455,251C455,251 456.833,212.815 461,191C461.167,184.185 464.667,181.648 466,181C471.667,179.518 487,174 487,174Z" style="fill:rgb(170,161,200);stroke:white;stroke-width:1.46px;"/>
    </g>
</svg>
