<?xml version="1.0" encoding="UTF-8" standalone="no"?>
<!DOCTYPE svg PUBLIC "-//W3C//DTD SVG 1.1//EN" "http://www.w3.org/Graphics/SVG/1.1/DTD/svg11.dtd">
<svg width="100%" height="100%" viewBox="0 0 90 120" version="1.1" xmlns="http://www.w3.org/2000/svg" xmlns:xlink="http://www.w3.org/1999/xlink" xml:space="preserve" xmlns:serif="http://www.serif.com/" style="fill-rule:evenodd;clip-rule:evenodd;stroke-miterlimit:10;">
    <g id="K" transform="matrix(1,0,0,1,-430.988,-268.039)">
        <path d="M468,287C468,287 473.5,284.482 472,291C470.5,297.518 470,301 470,301C470,301 469.5,306.648 474,300C480.333,291.518 484,286 484,286C484,286 486.167,281.815 491,280C500.333,277.185 515,271 515,271C515,271 520.667,268.815 517,275C505.667,300.685 488,323 488,323C484.833,326.185 485.5,329.815 488,333C495.167,341.685 508,358 508,358C508,358 511.167,361.482 506,363C496.833,365.185 483,370 483,370C479.5,372.352 475.833,371.315 474,369C470.667,364.185 467,360 467,360C467,360 463.333,356.482 463,361L463,371C463,371 462.5,376.648 458,378C449.833,379.852 437,385 437,385C433.833,386.518 433.333,384.148 434,379C436.5,367.685 438,343 438,343C438.833,321.685 443,301 443,301C443,301 442.333,294.982 449,293C457,290.518 468,287 468,287Z" style="fill:rgb(25,42,81);stroke:white;stroke-width:1.46px;"/>
    </g>
</svg>
