<?xml version="1.0" encoding="UTF-8" standalone="no"?>
<!DOCTYPE svg PUBLIC "-//W3C//DTD SVG 1.1//EN" "http://www.w3.org/Graphics/SVG/1.1/DTD/svg11.dtd">
<svg width="100%" height="100%" viewBox="0 0 70 105" version="1.1" xmlns="http://www.w3.org/2000/svg" xmlns:xlink="http://www.w3.org/1999/xlink" xml:space="preserve" xmlns:serif="http://www.serif.com/" style="fill-rule:evenodd;clip-rule:evenodd;stroke-miterlimit:10;">
    <g id="L" transform="matrix(1,0,0,1,-236.545,-308.113)">
        <path d="M277,311C277,311 283.5,308.815 282,315C279.333,328.352 275.667,366 276,372C276,376.018 279.167,376.482 283,375C291,372.352 294.833,370.852 294.833,370.852C298,369.352 299.833,372.315 299,374C298.167,375.685 297,387.315 297,390C297.5,394.852 290,397 290,397C290,397 262.333,405.148 248,410C244.667,411.518 243.5,410.148 244,406C246.5,396.852 248,361 248,361C250,343.685 253,325 253,325C253,325 252.333,318.815 259,317C267.167,314.852 277,311 277,311Z" style="fill:rgb(150,122,161);stroke:white;stroke-width:1.46px;"/>
    </g>
</svg>
