<?xml version="1.0" encoding="UTF-8" standalone="no"?>
<!DOCTYPE svg PUBLIC "-//W3C//DTD SVG 1.1//EN" "http://www.w3.org/Graphics/SVG/1.1/DTD/svg11.dtd">
<svg width="100%" height="100%" viewBox="0 0 110 120" version="1.1" xmlns="http://www.w3.org/2000/svg" xmlns:xlink="http://www.w3.org/1999/xlink" xml:space="preserve" xmlns:serif="http://www.serif.com/" style="fill-rule:evenodd;clip-rule:evenodd;stroke-miterlimit:10;">
    <g id="M" transform="matrix(1,0,0,1,-342.401,-172.433)">
        <path d="M360,202C360,202 353.6,202.578 353,208C351.6,225.622 349.2,266.578 344,285C343,289.822 346,289.178 348,288C356.2,285.422 368,282 368,282C372.8,281.422 374,272 374,272C374,272 376.333,255.648 377,240C376.333,236.352 379.667,236.648 381,240C384.833,245.685 390,259 390,259C392.167,263.518 393,264 393,264C393,264 394.333,266.982 397,261C403.167,249.852 413,237 413,237C414.167,233.352 416,234.648 416,237C416.5,248.185 413,274 413,274C410.5,283.518 418,279 418,279C426,277.185 439,272 439,272C439,272 442.5,271.148 443,264C444.667,239.852 449.833,196.148 450,185C450.5,180.352 451,178 451,178C450.333,177.185 452,174.648 445,177C438,179.352 426,183 426,183C426,183 415.333,185.148 411,195C406.5,203.352 404,208 404,208C402.667,216.852 396.5,211.482 396,207C393,197.685 392,195 392,195C392,195 390.167,191.148 383,194C371.167,197.852 360,202 360,202Z" style="fill:rgb(170,161,200);stroke:white;stroke-width:1.46px;"/>
    </g>
</svg>
