<?xml version="1.0" encoding="UTF-8" standalone="no"?>
<!DOCTYPE svg PUBLIC "-//W3C//DTD SVG 1.1//EN" "http://www.w3.org/Graphics/SVG/1.1/DTD/svg11.dtd">
<svg width="100%" height="100%" viewBox="0 0 80 115" version="1.1" xmlns="http://www.w3.org/2000/svg" xmlns:xlink="http://www.w3.org/1999/xlink" xml:space="preserve" xmlns:serif="http://www.serif.com/" style="fill-rule:evenodd;clip-rule:evenodd;stroke-miterlimit:10;">
    <g id="R" transform="matrix(1,0,0,1,-472.457,-368.611)">
        <path d="M533,373C533,373 550.167,366.982 551,394C550.167,417.852 535,434 535,434C537.833,440.352 539,450 539,450C541.667,455.352 544,460 544,460C544,460 546,462.648 540,465C528,468.685 522,471 522,471C518.333,473.518 516.5,471.148 515,468C510.5,461.018 508,449 508,449C507.5,443.852 503.5,446.315 503,451C502.5,457.185 502,467 502,467C502.5,470.685 497,473 497,473C492.5,474.018 478,479 478,479C474.167,480.685 473.667,479.982 474,474C477.5,448.185 478.667,430.315 479,425C479.167,409.852 479.833,405.148 481,402C483.333,398.352 483,390 483,390C483.333,387.018 489,386 489,386C499.333,383.018 533,373 533,373Z" style="fill:rgb(25,42,81);stroke:white;stroke-width:1.46px;"/>
    </g>
</svg>
