<?xml version="1.0" encoding="UTF-8" standalone="no"?>
<!DOCTYPE svg PUBLIC "-//W3C//DTD SVG 1.1//EN" "http://www.w3.org/Graphics/SVG/1.1/DTD/svg11.dtd">
<svg width="100%" height="100%" viewBox="0 0 80 115" version="1.1" xmlns="http://www.w3.org/2000/svg" xmlns:xlink="http://www.w3.org/1999/xlink" xml:space="preserve" xmlns:serif="http://www.serif.com/" style="fill-rule:evenodd;clip-rule:evenodd;stroke-miterlimit:10;">
    <g id="S" transform="matrix(1,0,0,1,-263.972,-185.457)">
        <path d="M333,189C333,189 304.4,197.378 297,200C289.6,202.622 274,212.482 271,232C268,251.518 273.667,260.315 284,261C293.5,260.185 303,255 303,255C309.5,251.852 311.833,260.482 307,262C293.5,266.852 278,272 278,272C278,272 270,273.315 270,278L270,292C270,292 268.5,299.148 273,297C285.833,292.685 315,284 315,284C327.5,278.352 337.833,263.315 338,248C338.167,234.685 337,219.315 318,225C311.5,227.852 308,229 308,229C300,233.518 293.833,226.648 303,222C314.833,218.685 328,214 328,214C336.667,212.685 338,198 338,198C339.333,185.352 333,189 333,189Z" style="fill:rgb(170,161,200);stroke:white;stroke-width:1.46px;"/>
    </g>
</svg>
